<?xml version="1.0" encoding="utf-8"?>
<!-- Generator: Adobe Illustrator 27.7.0, SVG Export Plug-In . SVG Version: 6.00 Build 0)  -->
<svg version="1.1" id="Layer_1" xmlns="http://www.w3.org/2000/svg" xmlns:xlink="http://www.w3.org/1999/xlink" x="0px" y="0px"
	 width="38.992px" height="38.992px" viewBox="0 0 38.992 38.992" style="enable-background:new 0 0 38.992 38.992;"
	 xml:space="preserve">
<style type="text/css">
	.st0{fill:none;stroke:#000000;stroke-width:2;stroke-miterlimit:10;}
</style>
<g>
	<circle class="st0" cx="19.496" cy="19.496" r="18.496"/>
	<g id="EJtJQL.tif_00000150092524574423203570000012828500414909315984_">
		<g>
			<path d="M8.473,19.053c0.044-0.156,0.084-0.312,0.131-0.467c0.684-2.253,3.492-2.991,5.194-1.366
				c0.065,0.062,0.122,0.132,0.186,0.203c0.089-0.041,0.163-0.072,0.234-0.108c3.263-1.632,6.526-3.266,9.791-4.894
				c0.187-0.093,0.269-0.17,0.231-0.417c-0.273-1.801,1.219-3.515,3.046-3.528c1.922-0.014,3.398,1.544,3.212,3.447
				c-0.123,1.254-0.804,2.161-1.977,2.624c-1.192,0.47-2.307,0.254-3.267-0.601c-0.219-0.195-0.354-0.215-0.615-0.083
				c-3.22,1.624-6.448,3.234-9.676,4.841c-0.187,0.093-0.258,0.173-0.221,0.403c0.045,0.278,0.012,0.571-0.011,0.855
				c-0.01,0.129-0.003,0.205,0.128,0.271c3.352,1.671,6.702,3.346,10.053,5.02c0.021,0.011,0.045,0.017,0.084,0.031
				c0.442-0.486,0.981-0.822,1.629-0.982c1.705-0.421,3.461,0.68,3.825,2.405c0.363,1.72-0.769,3.43-2.486,3.756
				c-0.054,0.01-0.105,0.034-0.158,0.052c-0.295,0-0.59,0-0.886,0c-0.044-0.017-0.087-0.041-0.133-0.05
				c-1.615-0.301-2.753-1.81-2.551-3.439c0.036-0.289-0.061-0.377-0.279-0.485c-3.25-1.618-6.497-3.242-9.741-4.872
				c-0.169-0.085-0.256-0.065-0.389,0.066c-1.691,1.666-4.534,0.939-5.225-1.331c-0.047-0.155-0.088-0.311-0.131-0.467
				C8.473,19.643,8.473,19.348,8.473,19.053z"/>
		</g>
	</g>
</g>
<g>
</g>
<g>
</g>
<g>
</g>
<g>
</g>
<g>
</g>
<g>
</g>
</svg>
