<?xml version="1.0" encoding="utf-8"?>
<!-- Generator: Adobe Illustrator 27.7.0, SVG Export Plug-In . SVG Version: 6.00 Build 0)  -->
<svg version="1.1" id="Layer_1" xmlns="http://www.w3.org/2000/svg" xmlns:xlink="http://www.w3.org/1999/xlink" x="0px" y="0px"
	 width="75.419px" height="29.691px" viewBox="0 0 75.419 29.691" style="enable-background:new 0 0 75.419 29.691;"
	 xml:space="preserve">
<style type="text/css">
	.st0{stroke:#010101;stroke-width:0.75;stroke-miterlimit:10;}
	.st1{fill:#FFFFFF;}
</style>
<g>
	<rect x="0.375" y="0.375" class="st0" width="74.669" height="28.941"/>
	<g>
		<path class="st1" d="M9.111,6.765h1.953c2.242,0,3.331,1.278,3.331,3.151v0.081c0,1.873-1.089,3.205-3.349,3.205H9.111V6.765z
			 M11.011,12.257c1.44,0,2.134-0.828,2.134-2.25V9.934c0-1.386-0.63-2.224-2.143-2.224h-0.693v4.546L11.011,12.257L11.011,12.257z"
			/>
		<path class="st1" d="M15.753,10.024V9.952c0-1.881,1.351-3.277,3.259-3.277c1.918,0,3.241,1.359,3.241,3.25v0.072
			c0,1.882-1.287,3.295-3.241,3.295C17.04,13.292,15.753,11.879,15.753,10.024z M21.011,10.006V9.934
			c0-1.323-0.738-2.305-1.999-2.305c-1.26,0-2.008,0.927-2.008,2.314v0.072c0,1.404,0.855,2.314,2.026,2.314
			C20.245,12.329,21.011,11.401,21.011,10.006z"/>
		<path class="st1" d="M23.439,6.765h1.224l1.117,4.727l1.251-4.727h0.99l1.278,4.753l1.152-4.753h1.116l-1.611,6.437H28.76
			l-1.27-4.69l-1.306,4.69h-1.143L23.439,6.765z"/>
		<path class="st1" d="M33.078,6.765h1.432l2.71,4.654V6.765h1.089v6.437h-1.242l-2.899-4.934v4.934h-1.089L33.078,6.765
			L33.078,6.765z"/>
		<path class="st1" d="M40.323,6.765h1.197v5.483h2.746v0.954h-3.943C40.323,13.202,40.323,6.765,40.323,6.765z"/>
		<path class="st1" d="M45.498,10.024V9.952c0-1.881,1.351-3.277,3.259-3.277c1.918,0,3.241,1.359,3.241,3.25v0.072
			c0,1.882-1.287,3.295-3.241,3.295C46.785,13.292,45.498,11.879,45.498,10.024z M50.756,10.006V9.934
			c0-1.323-0.738-2.305-1.999-2.305c-1.26,0-2.008,0.927-2.008,2.314v0.072c0,1.404,0.855,2.314,2.026,2.314
			C49.99,12.329,50.756,11.401,50.756,10.006z"/>
		<path class="st1" d="M55.344,6.765h1.566l2.125,6.437h-1.242l-0.514-1.593h-2.457l-0.505,1.593h-1.125L55.344,6.765z M55.1,10.735
			H57l-0.945-2.989L55.1,10.735z"/>
		<path class="st1" d="M60.554,6.765h1.953c2.242,0,3.331,1.278,3.331,3.151v0.081c0,1.873-1.089,3.205-3.349,3.205h-1.936V6.765
			H60.554z M62.454,12.257c1.44,0,2.134-0.828,2.134-2.25V9.934c0-1.386-0.63-2.224-2.143-2.224h-0.693v4.546L62.454,12.257
			L62.454,12.257z"/>
		<path class="st1" d="M8.882,17.565h3.988v0.954h-2.791v1.918h2.196v0.927h-2.196v2.638H8.882V17.565z"/>
		<path class="st1" d="M14.453,17.565h1.197v5.482h2.746v0.954h-3.943V17.565z"/>
		<path class="st1" d="M19.628,20.824v-0.072c0-1.881,1.351-3.276,3.259-3.276c1.918,0,3.241,1.359,3.241,3.25v0.071
			c0,1.882-1.287,3.295-3.241,3.295C20.915,24.092,19.628,22.679,19.628,20.824z M24.886,20.807v-0.072
			c0-1.323-0.738-2.305-1.999-2.305c-1.26,0-2.008,0.927-2.008,2.313v0.072c0,1.404,0.855,2.313,2.026,2.313
			C24.12,23.129,24.886,22.201,24.886,20.807z"/>
		<path class="st1" d="M27.493,20.824v-0.072c0-1.881,1.351-3.276,3.259-3.276c1.918,0,3.241,1.359,3.241,3.25v0.071
			c0,1.882-1.287,3.295-3.241,3.295C28.78,24.092,27.493,22.679,27.493,20.824z M32.751,20.807v-0.072
			c0-1.323-0.738-2.305-1.999-2.305c-1.26,0-2.008,0.927-2.008,2.313v0.072c0,1.404,0.855,2.313,2.026,2.313
			C31.985,23.129,32.751,22.201,32.751,20.807z"/>
		<path class="st1" d="M35.683,17.565h2.16c1.414,0,2.404,0.576,2.404,1.891v0.036c0,1.008-0.63,1.521-1.432,1.729l1.81,2.781H39.33
			L37.646,21.4H36.88v2.602h-1.197C35.683,24.002,35.683,17.565,35.683,17.565z M37.844,20.545c0.802,0,1.225-0.342,1.225-1.026
			v-0.036c0-0.738-0.459-0.99-1.225-0.99h-0.963v2.053h0.963V20.545z"/>
		<path class="st1" d="M44.801,17.565h2.07c1.44,0,2.386,0.639,2.386,1.989v0.036c0,1.359-0.981,1.963-2.358,1.963h-0.9v2.448
			h-1.197L44.801,17.565L44.801,17.565z M46.871,20.69c0.793,0,1.216-0.388,1.216-1.099v-0.036c0-0.765-0.45-1.062-1.216-1.062
			h-0.873v2.197H46.871z"/>
		<path class="st1" d="M50.821,17.565h1.197v5.482h2.746v0.954h-3.943C50.821,24.001,50.821,17.565,50.821,17.565z"/>
		<path class="st1" d="M57.976,17.565h1.566l2.125,6.437h-1.242l-0.514-1.593h-2.457l-0.505,1.593h-1.125L57.976,17.565z
			 M57.733,21.535h1.899l-0.945-2.988L57.733,21.535z"/>
		<path class="st1" d="M63.187,17.565h1.432l2.71,4.654v-4.654h1.089v6.437h-1.242l-2.899-4.934v4.934h-1.089L63.187,17.565
			L63.187,17.565z"/>
	</g>
</g>
</svg>
