<?xml version="1.0" encoding="utf-8"?>
<!-- Generator: Adobe Illustrator 27.6.1, SVG Export Plug-In . SVG Version: 6.00 Build 0)  -->
<svg version="1.1" id="Layer_1" xmlns="http://www.w3.org/2000/svg" xmlns:xlink="http://www.w3.org/1999/xlink" x="0px" y="0px"
	 width="448px" height="448px" viewBox="0 0 448 448" style="enable-background:new 0 0 448 448;" xml:space="preserve">
<style type="text/css">
	.st0{fill:#FFFFFF;}
</style>
<path class="st0" d="M64,0C28.7,0,0,28.7,0,64v320c0,35.3,28.7,64,64,64h320c35.3,0,64-28.7,64-64V64c0-35.3-28.7-64-64-64H64z
	 M143,143c9.4-9.4,24.6-9.4,33.9,0l47,47l47-47c9.4-9.4,24.6-9.4,33.9,0s9.4,24.6,0,33.9l-47,47l47,47c9.4,9.4,9.4,24.6,0,33.9
	s-24.6,9.4-33.9,0l-47-47l-47,47c-9.4,9.4-24.6,9.4-33.9,0s-9.4-24.6,0-33.9l47-47l-47-47C133.6,167.5,133.6,152.3,143,143z"/>
</svg>
